<svg width="26" height="19" viewBox="0 0 26 19" fill="none" xmlns="http://www.w3.org/2000/svg">
<path d="M22.2765 3.14626C19.2971 0.916757 16.4426 0.979417 16.4426 0.979417L16.1509 1.31274C19.6928 2.37536 21.3389 3.93796 21.3389 3.93796C16.2712 1.1479 9.81647 1.16792 4.54549 3.93796C4.54549 3.93796 6.25395 2.2919 10.0045 1.22928L9.79619 0.979156C9.79619 0.979156 6.96245 0.916757 3.96231 3.146C3.96231 3.146 0.961914 8.5423 0.961914 15.1889C0.961914 15.1889 2.71223 18.1893 7.31683 18.3352C7.31683 18.3352 8.08773 17.4184 8.71277 16.6267C6.06675 15.835 5.06653 14.189 5.06653 14.189C6.72897 15.2292 8.40987 15.8803 10.5047 16.2934C13.9128 16.9949 18.1521 16.2737 21.3184 14.189C21.3184 14.189 20.2765 15.8766 17.5471 16.6475C18.1721 17.4184 18.9222 18.3144 18.9222 18.3144C23.5268 18.1685 25.2769 15.1681 25.2769 15.1892C25.2766 8.54256 22.2765 3.14626 22.2765 3.14626ZM9.23355 13.2514C8.06667 13.2514 7.10831 12.2304 7.10831 10.9595C7.19359 7.9157 11.2948 7.92506 11.3588 10.9595C11.3588 12.2304 10.421 13.2514 9.23355 13.2514ZM16.8383 13.2514C15.6714 13.2514 14.7131 12.2304 14.7131 10.9595C14.8067 7.92168 18.8567 7.92038 18.9635 10.9595C18.9635 12.2304 18.026 13.2514 16.8383 13.2514Z" fill="white"/>
</svg>
