<svg width="28" height="28" viewBox="0 0 28 28" fill="none" xmlns="http://www.w3.org/2000/svg">
<mask id="mask0_76_339" style="mask-type:luminance" maskUnits="userSpaceOnUse" x="0" y="0" width="28" height="28">
<path d="M28 0H0V28H28V0Z" fill="white"/>
</mask>
<g mask="url(#mask0_76_339)">
<path fill-rule="evenodd" clip-rule="evenodd" d="M8.58595 13.9995C-7.66035 25.9672 2.03902 35.6665 14.0027 19.4172C25.9588 35.6665 35.6581 25.9672 19.4193 13.9995C35.6656 2.03368 25.9662 -7.66749 14.0027 8.58371C2.03157 -7.6619 -7.66781 2.03368 8.58595 13.9995ZM14 17.5C15.933 17.5 17.5 15.933 17.5 14C17.5 12.067 15.933 10.5 14 10.5C12.067 10.5 10.5 12.067 10.5 14C10.5 15.933 12.067 17.5 14 17.5Z" fill="url(#paint0_linear_76_339)"/>
</g>
<defs>
<linearGradient id="paint0_linear_76_339" x1="14" y1="0" x2="14" y2="28" gradientUnits="userSpaceOnUse">
<stop stop-color="#49235F"/>
<stop offset="1" stop-color="#D387FF"/>
</linearGradient>
</defs>
</svg>
